<svg id="Layer_1" data-name="Layer 1" xmlns="http://www.w3.org/2000/svg" xmlns:xlink="http://www.w3.org/1999/xlink" viewBox="0 0 16 16"><defs><style>.cls-1{fill-rule:evenodd;fill:url(#linear-gradient);}</style><linearGradient id="linear-gradient" x1="8" y1="2" x2="8" y2="18" gradientTransform="matrix(1, 0, 0, -1, 0, 18)" gradientUnits="userSpaceOnUse"><stop offset="0" stop-color="#fff" stop-opacity="0.5"/><stop offset="0.15" stop-color="#fff" stop-opacity="0.65"/><stop offset="0.3" stop-color="#fff" stop-opacity="0.78"/><stop offset="0.46" stop-color="#fff" stop-opacity="0.88"/><stop offset="0.62" stop-color="#fff" stop-opacity="0.95"/><stop offset="0.8" stop-color="#fff" stop-opacity="0.99"/><stop offset="1" stop-color="#fff"/></linearGradient></defs><path class="cls-1" d="M14.1,0H1.9A1.9,1.9,0,0,0,0,1.9H0V14.1A1.9,1.9,0,0,0,1.9,16H14.1A1.9,1.9,0,0,0,16,14.1h0V1.9A1.91,1.91,0,0,0,14.1,0ZM6.89,11.54a.63.63,0,0,1-.63.63H3.59A.64.64,0,0,1,3,11.54V3.59A.64.64,0,0,1,3.59,3H6.26a.63.63,0,0,1,.63.63Zm6.16-3.65a.65.65,0,0,1-.64.64H9.74a.64.64,0,0,1-.63-.64V3.59A.63.63,0,0,1,9.74,3h2.67a.64.64,0,0,1,.64.63Z"/></svg>