<?xml version="1.0" encoding="utf-8"?>
<!-- Generator: Adobe Illustrator 25.1.0, SVG Export Plug-In . SVG Version: 6.00 Build 0)  -->
<svg version="1.1" id="Layer_1" xmlns="http://www.w3.org/2000/svg" xmlns:xlink="http://www.w3.org/1999/xlink" x="0px" y="0px"
	 viewBox="0 0 48 14" style="enable-background:new 0 0 48 14;" xml:space="preserve">
<style type="text/css">
	.st0{fill-rule:evenodd;clip-rule:evenodd;fill:url(#SVGID_1_);}
	.st1{fill:#505F79;}
</style>
<g id="Logos">
	
		<linearGradient id="SVGID_1_" gradientUnits="userSpaceOnUse" x1="4.8145" y1="0.7472" x2="4.8145" y2="10.3731" gradientTransform="matrix(1 0 0 -1 0 16)">
		<stop  offset="0" style="stop-color:#42526E"/>
		<stop  offset="1" style="stop-color:#7A869A"/>
	</linearGradient>
	<path class="st0" d="M8.5,2.1H1.1C0.5,2.1,0,2.6,0,3.3v7.3c0,0.6,0.5,1.1,1.1,1.1c0,0,0,0,0,0h7.3c0.6,0,1.1-0.5,1.1-1.1
		c0,0,0,0,0,0V3.3C9.6,2.6,9.1,2.1,8.5,2.1z M4.2,9c0,0.2-0.2,0.4-0.4,0.4c0,0,0,0,0,0H2.2C2,9.4,1.8,9.3,1.8,9V4.3
		C1.8,4,2,3.9,2.2,3.9h1.6C4,3.9,4.1,4,4.2,4.3c0,0,0,0,0,0V9z M7.9,6.8c0,0.2-0.2,0.4-0.4,0.4c0,0,0,0,0,0H5.9
		c-0.2,0-0.4-0.2-0.4-0.4V4.3c0-0.2,0.2-0.4,0.4-0.4h1.6c0.2,0,0.4,0.2,0.4,0.4c0,0,0,0,0,0V6.8z"/>
	<path class="st1" d="M20,2.8v1.9h-2.2v7.1h-2.1V4.7h-2.2V2.8L20,2.8z"/>
	<path class="st1" d="M22.7,11.7h-2V4.8h2v1.3c0.4-0.9,1-1.5,2-1.4v2.1c-1.4-0.1-2,0.2-2,1.3V11.7z"/>
	<path class="st1" d="M35.4,11.8c-1.3,0-2.1-0.6-2.1-2.1V2.1h2v7.3c0,0.4,0.3,0.6,0.6,0.6c0.1,0,0.2,0,0.3,0v1.7
		C36,11.8,35.7,11.8,35.4,11.8z"/>
	<path class="st1" d="M39.6,11.8c-1.3,0-2.1-0.6-2.1-2.1V2.1h2v7.3c0,0.4,0.3,0.6,0.6,0.6c0.1,0,0.2,0,0.3,0v1.7
		C40.1,11.8,39.8,11.8,39.6,11.8z"/>
	<path class="st1" d="M41.3,8.3c0-2.1,1.2-3.6,3.4-3.6S48,6.1,48,8.3s-1.2,3.6-3.3,3.6C42.6,11.9,41.3,10.4,41.3,8.3z M43.2,8.3
		c0,1,0.4,1.9,1.4,1.9c1,0,1.4-0.8,1.4-1.9s-0.4-1.9-1.4-1.9S43.2,7.2,43.2,8.3z"/>
	<path class="st1" d="M27.3,8.9C27.9,8.9,28.5,9,29,9c1.5,0,2.8-0.4,2.8-1.9c0-1.4-1.3-2.5-2.9-2.5c-2.1,0-3.5,1.5-3.5,3.7
		c0,2.2,1.2,3.5,3.8,3.5c0.8,0,1.6-0.1,2.3-0.4V9.8c-0.7,0.2-1.4,0.4-2.2,0.4C28.3,10.2,27.5,9.9,27.3,8.9z M28.9,6.2
		c0.6,0,1,0.4,1,0.9c0,0.7-0.7,0.9-1.5,0.9c-0.3,0-0.7,0-1-0.1c0-0.3,0.1-0.6,0.3-0.9C27.9,6.5,28.3,6.2,28.9,6.2z"/>
</g>
</svg>
